# xmcd CD database file
#
# Track frame offsets:
#	150
#	11888
#	20664
#	32349
#	44455
#	55135
#	66881
#	79812
#	91558
#	104391
#	115821
#	126719
#	137534
#	148336
#	158971
#	169712
#	179628
#	190796
#	203435
#	215518
#	229468
#	239602
#	250807
#	262147
#	273495
#	286546
#
# Disc length: 3980 seconds
#
# Revision: 0
# Processed by: cddbd v1.5.2PL0 Copyright (c) Steve Scherf et al.
# Submitted via: ACXtractor (MTCDDB.DLL V2003.12.21)
#
DISCID=820f8a1a
DTITLE=George Jones - Hardcore Honky Tonk
DYEAR=1997
DGENRE=Country
TTITLE0=Hearts in my Dreams
TTITLE1=If I Don't Love You
TTITLE2=Reliefe is Just a Swallow Away
TTITLE3=Out of Control
TTITLE4=The Last Town I Painted
TTITLE5=You Better Treat Your Man Right
TTITLE6=Colour of Blue
TTITLE7=The Window up Above
TTITLE8=Aching Breaking Heart
TTITLE9=Mr Fool
TTITLE10=Accidently on Purpose
TTITLE11=Glad to Let Her Go
TTITLE12=Talk to me Lonesome Heart
TTITLE13=Someone Sweet to Love
TTITLE14=Tarnished Angel
TTITLE15=Into My Arms Again
TTITLE16=Tall Tall Trees
TTITLE17=The Unclouded Day
TTITLE18=Take the world but give me Jesus
TTITLE19=Will There be Stars in My Crown
TTITLE20=If You Believe
TTITLE21=How Beautiful Heaven Must Be
TTITLE22=Learning on the Everlasting Arm
TTITLE23=Lord You've Been Mighty Good to Me
TTITLE24=Flowers For Mama
TTITLE25=I'll Fly Away
EXTD=ID3G:   2 YEAR: 1997
EXTT0=
EXTT1=
EXTT2=
EXTT3=
EXTT4=
EXTT5=
EXTT6=
EXTT7=
EXTT8=
EXTT9=
EXTT10=
EXTT11=
EXTT12=
EXTT13=
EXTT14=
EXTT15=
EXTT16=
EXTT17=
EXTT18=
EXTT19=
EXTT20=
EXTT21=
EXTT22=
EXTT23=
EXTT24=
EXTT25=
PLAYORDER=
